<?xml version="1.0" encoding="UTF-8"?>
<svg version="1.1" xmlns="http://www.w3.org/2000/svg" width="512" height="512">
<path d="M0 0 C1.43883545 0.30599121 1.43883545 0.30599121 2.90673828 0.61816406 C40.0384403 8.7434959 74.20204007 25.11575876 103 50 C103.92167969 50.79148438 104.84335937 51.58296875 105.79296875 52.3984375 C116.08407269 61.46246227 125.63036719 71.12379902 134 82 C134.42104004 82.53931152 134.84208008 83.07862305 135.27587891 83.63427734 C165.87634314 123.0160358 181.52005603 171.0211175 181.3125 220.6875 C181.31034485 221.61642059 181.3081897 222.54534119 181.30596924 223.50241089 C181.25608771 236.89617837 180.87302104 249.87362489 178 263 C177.70996094 264.4240918 177.70996094 264.4240918 177.4140625 265.87695312 C166.79705308 317.48741557 138.1391451 365.80958115 96 398 C95.46358887 398.41813965 94.92717773 398.8362793 94.37451172 399.26708984 C54.99149434 429.87351191 6.98379832 445.52007657 -42.6875 445.3125 C-43.61642059 445.31034485 -44.54534119 445.3081897 -45.50241089 445.30596924 C-58.89617837 445.25608771 -71.87362489 444.87302104 -85 442 C-86.4240918 441.70996094 -86.4240918 441.70996094 -87.87695312 441.4140625 C-140.318196 430.62614968 -189.70406802 401.10128104 -221.73242188 357.71630859 C-222.98942094 356.01432411 -224.2672632 354.32955002 -225.546875 352.64453125 C-232.30450656 343.6108374 -237.81073537 334.00413249 -243 324 C-243.58612061 322.87682373 -243.58612061 322.87682373 -244.18408203 321.73095703 C-260.31911338 290.41558985 -267.45896006 256.35913884 -267.3125 221.3125 C-267.31034485 220.38357941 -267.3081897 219.45465881 -267.30596924 218.49758911 C-267.25608771 205.10382163 -266.87302104 192.12637511 -264 179 C-263.70996094 177.5759082 -263.70996094 177.5759082 -263.4140625 176.12304688 C-255.65665917 138.41344736 -239.16457035 104.13435962 -214 75 C-213.22011719 74.08992188 -212.44023437 73.17984375 -211.63671875 72.2421875 C-209.47083724 69.77933868 -207.25655306 67.38004601 -205 65 C-204.53158691 64.50435547 -204.06317383 64.00871094 -203.58056641 63.49804688 C-195.63826073 55.15266855 -187.23894802 47.86793622 -178 41 C-177.44231934 40.5762207 -176.88463867 40.15244141 -176.31005859 39.71582031 C-149.38700168 19.27409458 -117.876025 6.87156144 -85 0 C-84.17999512 -0.18079102 -83.35999023 -0.36158203 -82.51513672 -0.54785156 C-56.85414484 -6.02757091 -25.5958949 -5.53025112 0 0 Z M-58 107 C-66.63443413 115.67574722 -67.15040733 124.29523814 -67.14526367 136.0949707 C-67.14862228 137.20305084 -67.1519809 138.31113098 -67.15544128 139.45278931 C-67.16492847 143.11046474 -67.1668933 146.76809428 -67.16796875 150.42578125 C-67.17118292 152.97397378 -67.17454712 155.52216613 -67.17805481 158.07035828 C-67.18404053 163.41076154 -67.18593818 168.75114776 -67.18530273 174.09155273 C-67.1847025 180.24678696 -67.19524701 186.40193339 -67.2110464 192.55714542 C-67.22574641 198.49770108 -67.22928947 204.43823017 -67.22869301 210.37880516 C-67.22987084 212.89730373 -67.23428156 215.41580299 -67.24202538 217.93428993 C-67.25185628 221.46188197 -67.24893481 224.98924982 -67.24291992 228.5168457 C-67.24853943 229.55039688 -67.25415894 230.58394806 -67.25994873 231.64881897 C-67.21545528 241.95228349 -65.76076737 249.96452948 -59 258 C-53.50932668 262.55609063 -48.02710128 264.32269619 -40.9375 263.8125 C-34.56871395 262.98262788 -29.60735246 260.48921521 -25 256 C-19.8170508 249.04979464 -19.28289975 242.82801364 -19.36889648 234.35522461 C-19.36174118 233.11830368 -19.35458588 231.88138275 -19.34721375 230.60697937 C-19.33327194 227.23875367 -19.34156089 223.87208051 -19.36130404 220.50398326 C-19.37778598 216.96566512 -19.36886464 213.42739383 -19.36378479 209.88905334 C-19.35927499 203.95023956 -19.37506546 198.01174189 -19.40307617 192.07299805 C-19.4351381 185.22283216 -19.43510315 178.37323565 -19.4178614 171.52302927 C-19.40195797 164.91123681 -19.40875331 158.2996516 -19.42579842 151.68786812 C-19.43264182 148.88379915 -19.43166464 146.07989767 -19.42425346 143.27583122 C-19.41511866 139.35546295 -19.43920785 135.43567211 -19.46655273 131.51538086 C-19.46002686 130.36138794 -19.45350098 129.20739502 -19.44677734 128.01843262 C-19.53909728 120.21895096 -20.65544542 114.74955924 -26 108.7578125 C-26.66 108.21898437 -27.32 107.68015625 -28 107.125 C-28.66 106.57070312 -29.32 106.01640625 -30 105.4453125 C-39.0921578 98.87480784 -49.51617349 100.17605259 -58 107 Z M-63.4375 299.4375 C-68.61500994 306.17996351 -70.56454424 312.53183633 -70 321 C-68.63961708 329.02775417 -64.16578064 334.83557922 -58 340 C-50.35559738 344.21797535 -42.99265258 345.2276569 -34.5625 343 C-27.48767224 340.3806001 -21.76418634 335.31119026 -18.5 328.5 C-15.74302501 321.11434223 -15.24972275 314.48686586 -18 307 C-21.4437875 299.972812 -26.13188192 295.66299631 -33 292 C-44.00919462 288.33026846 -55.64255315 290.86115261 -63.4375 299.4375 Z " fill="#FF0000" transform="translate(299,35)"/>
</svg>