<svg width="20" height="18" viewBox="0 0 20 18" fill="none" xmlns="http://www.w3.org/2000/svg">
<path d="M2 0.5H18C18.3643 0.5 18.6735 0.608842 18.9453 0.835938L19.0596 0.94043C19.3579 1.23936 19.5 1.58365 19.5 2V16C19.5 16.3643 19.3912 16.6735 19.1641 16.9453L19.0596 17.0596C18.7606 17.3579 18.4163 17.5 18 17.5H2C1.58354 17.5 1.23963 17.3578 0.941406 17.0596C0.642344 16.7605 0.5 16.4162 0.5 16V2C0.5 1.58379 0.642344 1.2395 0.941406 0.94043C1.23963 0.642207 1.58354 0.5 2 0.5ZM1.5 16.5H18.5V1.5H1.5V16.5ZM4 12.5H7C7.11824 12.5 7.20867 12.5273 7.28613 12.5801L7.36035 12.6416C7.45264 12.7349 7.5 12.8432 7.5 13C7.5 13.1577 7.45213 13.2656 7.35938 13.3584C7.26559 13.4522 7.15715 13.5 7 13.5H4C3.84285 13.5 3.73441 13.4522 3.64062 13.3584C3.54787 13.2656 3.5 13.1577 3.5 13C3.5 12.8432 3.54736 12.7349 3.63965 12.6416C3.73331 12.5483 3.8423 12.5 4 12.5ZM16.0869 6.5498C16.2255 6.5498 16.3373 6.59424 16.4463 6.70312C16.5659 6.82278 16.6093 6.93508 16.6133 7.05371C16.6159 7.14886 16.5843 7.2585 16.4463 7.39648L12.8965 10.9463C12.8416 11.0012 12.7949 11.0279 12.7578 11.041L12.7559 11.042C12.6975 11.063 12.6298 11.0752 12.5498 11.0752C12.4701 11.0752 12.403 11.0629 12.3447 11.042L12.3418 11.041L12.2793 11.0088C12.2563 10.9937 12.2304 10.9736 12.2031 10.9463L10.7783 9.52148C10.6697 9.41282 10.6334 9.31065 10.6367 9.19141C10.6413 9.04904 10.6879 8.93102 10.7881 8.81934C10.9008 8.71019 11.0129 8.66639 11.1406 8.66211C11.2602 8.65866 11.3627 8.69477 11.4717 8.80371L12.5498 9.88184L15.7285 6.70312C15.8378 6.59394 15.9493 6.54982 16.0869 6.5498ZM4 8.5H7C7.11824 8.5 7.20867 8.52728 7.28613 8.58008L7.36035 8.6416C7.45264 8.7349 7.5 8.8432 7.5 9C7.5 9.15768 7.45213 9.26564 7.35938 9.3584C7.26559 9.45217 7.15715 9.5 7 9.5H4C3.84285 9.5 3.73441 9.45217 3.64062 9.3584C3.54787 9.26564 3.5 9.15768 3.5 9C3.5 8.8432 3.54736 8.7349 3.63965 8.6416C3.73331 8.54827 3.8423 8.5 4 8.5ZM4 4.5H7C7.11824 4.5 7.20867 4.52728 7.28613 4.58008L7.36035 4.6416C7.45264 4.7349 7.5 4.8432 7.5 5C7.5 5.15768 7.45213 5.26564 7.35938 5.3584C7.26559 5.45217 7.15714 5.5 7 5.5H4C3.84286 5.5 3.73441 5.45217 3.64062 5.3584C3.54787 5.26564 3.5 5.15768 3.5 5C3.5 4.8432 3.54736 4.7349 3.63965 4.6416C3.73331 4.54827 3.8423 4.5 4 4.5Z" fill="#3393A1" stroke="#3393A1"/>
</svg>
